<?xml version="1.0" encoding="UTF-8" standalone="no"?>
<!-- Created with Inkscape (http://www.inkscape.org/) -->

<svg
   width="512"
   height="512"
   viewBox="0 0 512 512"
   version="1.1"
   id="svg5"
   inkscape:version="1.1.1 (3bf5ae0d25, 2021-09-20)"
   sodipodi:docname="Gray box.svg"
   xmlns:inkscape="http://www.inkscape.org/namespaces/inkscape"
   xmlns:sodipodi="http://sodipodi.sourceforge.net/DTD/sodipodi-0.dtd"
   xmlns="http://www.w3.org/2000/svg"
   xmlns:svg="http://www.w3.org/2000/svg">
  <sodipodi:namedview
     id="namedview7"
     pagecolor="#ffffff"
     bordercolor="#666666"
     borderopacity="1.0"
     inkscape:pageshadow="2"
     inkscape:pageopacity="0.0"
     inkscape:pagecheckerboard="0"
     inkscape:document-units="px"
     showgrid="false"
     inkscape:zoom="1.7050781"
     inkscape:cx="371.83047"
     inkscape:cy="148.08706"
     inkscape:window-width="2560"
     inkscape:window-height="1417"
     inkscape:window-x="1912"
     inkscape:window-y="-8"
     inkscape:window-maximized="1"
     inkscape:current-layer="layer1" />
  <defs
     id="defs2">
    <style
       type="text/css"
       id="style1075">  .fil0 {fill:black}  </style>
  </defs>
  <g
     inkscape:label="Layer 1"
     inkscape:groupmode="layer"
     id="layer1">
    <path
       id="rect926"
       style="fill:#800080;fill-opacity:1;stroke:#000000;stroke-width:19.194;stroke-linecap:round;stroke-linejoin:round;stroke-miterlimit:4;stroke-dasharray:none;paint-order:stroke markers fill"
       d="M 9.5664062,9.7128906 V 502.41406 H 502.40234 V 388.79297 c 0,0 0.0153,-5.83544 0.0625,-9.56306 0.079,-6.23722 -3.22411,-13.62897 -9.6914,-21.68164 -5.00078,-6.22671 -14.05418,-7.8475 -19.89256,-11.35686 -11.2543,-6.76483 -27.25409,-12.2624 -39.22656,-13.47657 -48.57977,-0.0256 -82.21513,65.55378 -60.93946,13.14258 1.28093,-3.14952 2.29488,-6.15672 2.25391,-6.68164 -0.0911,-1.16681 -1.61534,-2.03006 -5.84961,-3.31445 -6.02784,-1.82845 -11.40378,-2.30733 -17.62305,-1.56836 -6.12956,0.72836 -7.96235,5.48474 -11.2647,8.29161 -4.94827,6.82725 -11.04464,11.81657 -16.71877,19.22636 -33.07728,41.85197 -16.67518,4.56515 -9.10986,-24.13413 3.53755,-13.68569 7.64512,-21.42942 2.32771,-36.96392 -1.42712,-4.16927 -3.6306,-7.42514 -6.48828,-9.58984 -3.31831,-2.5135 -4.32722,-1.02404 -10.21904,4.70177 -1.87877,1.82584 -12.0249,6.09431 -12.0249,6.09431 -18.00483,1.36713 -2.67525,-3.9684 2.38332,-12.17274 0,0 8.56174,-14.38366 5.80593,-23.40069 -3.08692,-10.10057 -6.91098,-19.62236 -10.5,-26.14453 -6.72702,-12.22463 -20.73174,-28.86579 -32.29883,-38.38086 -3.15079,-2.59187 -7.27521,-6.10595 -9.16601,-7.80859 -4.04068,-3.63852 -9.44696,-7.05092 -13.86328,-8.75195 -7.94832,-3.06147 -16.4681,-2.34084 -22.76954,1.92773 -1.01456,0.68727 -2.00064,1.13363 -2.1914,0.99219 -0.50672,-0.37569 -0.70634,-2.86604 -0.47461,-5.89649 0.15893,-2.07847 -0.22917,-4.15543 -1.79492,-9.60351 -3.45839,-12.03378 -4.30042,-13.77836 -9.61133,-19.92383 -9.83059,-11.37546 -26.48306,-21.90368 -47.63086,-30.11524 -12.04498,-4.67698 -27.41353,-8.33634 -34.70508,-8.26171 -1.91969,0.0196 -6.41598,0.71705 -10.25976,1.59179 -3.762754,0.85628 -7.069854,1.53735 -7.349614,1.51368 -0.87186,-0.0738 -0.921575,-1.49445 -0.177735,-5.09766 0.57504,-2.78549 0.583197,-4.2286 0.03516,-7.26563 -0.782661,-4.33715 -1.678913,-6.262429 -4.570313,-9.820309 -2.57824,-3.17256 -5.978618,-5.823307 -15.710937,-12.248047 -12.414798,-8.19551 -16.038161,-9.198103 -32.19336,-8.902343 -2.918605,0.0534 -5.910513,0.10689 -6.648437,0.11914 -2.853534,0.0473 -2.027788,-0.754547 3.24414,-3.154297 8.992935,-4.09358 14.201941,-5.936123 32.00586,-11.318359 6.567539,-1.98542 14.262669,-4.356821 17.099609,-5.269531 2.85831,-0.9196 8.488756,-2.18972 12.628906,-2.84961 19.881071,-3.16875 23.515541,-3.662902 29.054681,-3.945312 8.71468,-0.44433 46.46955,-0.545861 53.70899,-0.144531 119.77878,12.328064 86.37111,1.618361 113.45898,39.93164 3.91987,5.51833 5.40934,8.074345 9.6543,16.566409 8.10767,16.21935 8.6979,17.14053 14.92969,23.30078 2.91043,2.87696 6.81213,7.11606 8.66992,9.41797 9.56869,11.85625 14.96874,17.67537 21.47461,23.14648 9.2917,7.81388 15.23954,10.54763 31.24414,14.36133 4.71724,1.12411 5.06434,1.13582 9.98633,0.31641 5.73996,-0.95555 6.60013,-1.25153 7.64062,-2.6211 0.88932,-1.17061 0.96354,-2.33218 0.43164,-6.74414 -0.58584,-4.85911 -0.0869,-6.77694 2.80274,-10.78515 1.28805,-1.78688 3.14891,-4.55611 4.13672,-6.1543 2.71373,-4.39054 2.64725,-4.37296 9.0625,-2.23438 4.21016,1.40352 5.53803,1.68859 5.85742,1.25782 8.36246,-38.28428 3.03292,-30.7402 19.62105,-8.18806 0.27113,0.0887 0.25395,3.33063 0.25395,3.33063 1.48011,-5.91345 9.17447,-5.84118 16.26172,-5.22851 6.73512,0.58226 14.3238,3.30071 17.41406,6.23828 4.31942,4.10602 3.07833,7.83755 -8.51367,25.59766 -3.49742,5.35838 -7.71539,11.47914 -9.37305,13.60156 l -3.01367,3.85937 0.25,3.25586 c 0.51045,6.67709 0.95753,9.74074 1.91406,13.07227 3.05928,10.65522 9.65011,20.85674 21.13672,32.7207 3.82645,3.95222 17.62731,14.34627 22.71289,17.10547 0.7673,0.4163 1.57,0.76329 2.33984,1.16406 V 9.7128906 Z"
       sodipodi:nodetypes="ccccsssccssscccscsccssssssssccscscsssccccsscsccsssssssscssccsssscccsssccc" />
  </g>
  <g
     inkscape:groupmode="layer"
     id="layer3"
     inkscape:label="Layer 3">
    <text
       xml:space="preserve"
       style="font-size:69.0236px;line-height:0.75;font-family:'Siemens Sans';-inkscape-font-specification:'Siemens Sans';display:inline;stroke-width:0.431397"
       x="17.151304"
       y="436.60114"
       id="text1442"
       transform="scale(0.99924756,1.000753)"><tspan
         sodipodi:role="line"
         id="tspan1440"
         x="17.151304"
         y="436.60114"
         style="font-style:normal;font-variant:normal;font-weight:normal;font-stretch:normal;font-size:69.0236px;font-family:Gotham;-inkscape-font-specification:Gotham;fill:#000000;stroke-width:0.431397">GRAY</tspan><tspan
         sodipodi:role="line"
         x="17.151304"
         y="491.14597"
         style="font-style:normal;font-variant:normal;font-weight:normal;font-stretch:normal;font-size:69.0236px;font-family:Gotham;-inkscape-font-specification:Gotham;fill:#000000;stroke-width:0.431397"
         id="tspan18644">BOX</tspan></text>
  </g>
  <g
     inkscape:groupmode="layer"
     id="layer2"
     inkscape:label="Layer 2"
     style="display:inline" />
</svg>
