<?xml version="1.0" encoding="UTF-8" standalone="no"?>
<!-- Created with Inkscape (http://www.inkscape.org/) -->

<svg
   width="1189mm"
   height="841mm"
   viewBox="0 0 4493.8584 3178.5828"
   version="1.1"
   id="svg5"
   inkscape:version="1.1.1 (3bf5ae0d25, 2021-09-20)"
   sodipodi:docname="drawing-2.svg"
   inkscape:export-filename="C:\Users\ao9raq\OneDrive - SPLM\Desktop\bitmap.png"
   inkscape:export-xdpi="100000"
   inkscape:export-ydpi="100000"
   xmlns:inkscape="http://www.inkscape.org/namespaces/inkscape"
   xmlns:sodipodi="http://sodipodi.sourceforge.net/DTD/sodipodi-0.dtd"
   xmlns="http://www.w3.org/2000/svg"
   xmlns:svg="http://www.w3.org/2000/svg">
  <sodipodi:namedview
     id="namedview7"
     pagecolor="#ffffff"
     bordercolor="#666666"
     borderopacity="1.0"
     inkscape:pageshadow="2"
     inkscape:pageopacity="0.0"
     inkscape:pagecheckerboard="0"
     inkscape:document-units="mm"
     showgrid="false"
     inkscape:zoom="0.059581318"
     inkscape:cx="2232.2433"
     inkscape:cy="1703.5541"
     inkscape:window-width="2560"
     inkscape:window-height="1417"
     inkscape:window-x="1912"
     inkscape:window-y="-8"
     inkscape:window-maximized="1"
     inkscape:current-layer="layer1" />
  <defs
     id="defs2" />
  <g
     inkscape:label="Layer 1"
     inkscape:groupmode="layer"
     id="layer1">
    <text
       xml:space="preserve"
       style="font-size:40px;line-height:1.25;font-family:'Siemens Sans';-inkscape-font-specification:'Siemens Sans'"
       x="742.68243"
       y="1380.4663"
       id="text1574"><tspan
         sodipodi:role="line"
         id="tspan1572"
         x="742.68243"
         y="1380.4663">TEST</tspan></text>
    <text
       xml:space="preserve"
       style="font-size:192px;line-height:1.25;font-family:'Siemens Sans';-inkscape-font-specification:'Siemens Sans'"
       x="2223.8513"
       y="839.18921"
       id="text2832"><tspan
         sodipodi:role="line"
         id="tspan2830"
         x="2223.8513"
         y="839.18921"
         style="font-size:192px">TEST</tspan></text>
    <ellipse
       style="fill:none;stroke:#000000;stroke-width:26.7024;stroke-linecap:round;stroke-linejoin:round;paint-order:stroke markers fill"
       id="path4374"
       cx="2024.5439"
       cy="2437.8447"
       rx="258.05069"
       ry="167.83784" />
    <ellipse
       style="fill:none;stroke:#000000;stroke-width:26.7024;stroke-linecap:round;stroke-linejoin:round;paint-order:stroke markers fill"
       id="path4376"
       cx="3749.0779"
       cy="2232.2434"
       rx="211.89528"
       ry="159.44595" />
    <ellipse
       style="fill:none;stroke:#000000;stroke-width:26.7024;stroke-linecap:round;stroke-linejoin:round;paint-order:stroke markers fill"
       id="path4378"
       cx="3392.4224"
       cy="564.35474"
       rx="396.51691"
       ry="446.86826" />
    <ellipse
       style="fill:none;stroke:#000000;stroke-width:26.7024;stroke-linecap:round;stroke-linejoin:round;paint-order:stroke markers fill"
       id="path4380"
       cx="467.84799"
       cy="407.00677"
       rx="52.449326"
       ry="4.1959462" />
    <ellipse
       style="fill:none;stroke:#000000;stroke-width:26.7024;stroke-linecap:round;stroke-linejoin:round;paint-order:stroke markers fill"
       id="path4382"
       cx="830.94037"
       cy="1390.8655"
       rx="1.7616456"
       ry="0.74174547" />
    <ellipse
       style="fill:none;stroke:#000000;stroke-width:26.7024;stroke-linecap:round;stroke-linejoin:round;paint-order:stroke markers fill"
       id="path4384"
       cx="805.46606"
       cy="1402.2756"
       rx="0.092718184"
       ry="0.063743755" />
    <path
       style="fill:none;stroke:#000000;stroke-width:1px;stroke-linecap:butt;stroke-linejoin:miter;stroke-opacity:1"
       d="m 805.44288,1399.639 c 0.26695,0.1668 -0.14674,-0.088 0.47518,0.2549 0.16531,0.091 0.27773,0.1588 0.41723,0.2666 0.11331,0.088 0.19224,0.1862 0.32452,0.2434 0.35577,0.1538 0.72039,0.2899 1.07785,0.4404 0.0383,0.016 0.0787,0.028 0.11589,0.046 0.0158,0.01 -0.0498,0.06 -0.0579,0.07 -0.0663,0.077 -0.12655,0.1589 -0.19703,0.2318 -0.0419,0.043 -0.0954,0.074 -0.13908,0.1159 -0.24698,0.2352 -0.43994,0.5185 -0.7881,0.5911 -0.18548,0.039 -0.37844,0.023 -0.5679,0.023 -0.0889,0 -0.1778,-0.01 -0.26657,-0.012 -0.0349,0 -0.0722,0 -0.1043,-0.012 -0.0629,-0.027 -0.19502,-0.1169 -0.24339,-0.1855 -0.1174,-0.1663 -0.25516,-0.3231 -0.3361,-0.5099 -0.0999,-0.2306 -0.16226,-0.7843 -0.16226,-1.0663"
       id="path4419" />
  </g>
</svg>
